<svg width="15" height="15" viewBox="0 0 15 15" fill="none" xmlns="http://www.w3.org/2000/svg">
<mask id="path-1-inside-1_32_139" fill="white">
<path fill-rule="evenodd" clip-rule="evenodd" d="M7.5 14.22C11.6421 14.22 15 11.086 15 7.22003C15 3.35404 11.6421 0.220032 7.5 0.220032C3.35786 0.220032 0 3.35404 0 7.22003C0 11.086 3.35786 14.22 7.5 14.22ZM5.89286 9.59503C5.54768 9.59503 5.26786 9.87485 5.26786 10.22C5.26786 10.5652 5.54768 10.845 5.89286 10.845H7.5H9.10714C9.45232 10.845 9.73214 10.5652 9.73214 10.22C9.73214 9.87485 9.45232 9.59503 9.10714 9.59503H8.125V6.72003C8.125 6.37485 7.84518 6.09503 7.5 6.09503H6.42857C6.08339 6.09503 5.80357 6.37485 5.80357 6.72003C5.80357 7.06521 6.08339 7.34503 6.42857 7.34503H6.875V9.59503H5.89286ZM8.57143 4.22003C8.57143 4.77232 8.09173 5.22003 7.5 5.22003C6.90827 5.22003 6.42857 4.77232 6.42857 4.22003C6.42857 3.66775 6.90827 3.22003 7.5 3.22003C8.09173 3.22003 8.57143 3.66775 8.57143 4.22003Z"/>
</mask>
<path d="M8.125 9.59503H7.125V10.595H8.125V9.59503ZM6.875 7.34503H7.875V6.34503H6.875V7.34503ZM6.875 9.59503V10.595H7.875V9.59503H6.875ZM14 7.22003C14 10.4699 11.156 13.22 7.5 13.22V15.22C12.1283 15.22 16 11.7022 16 7.22003H14ZM7.5 1.22003C11.156 1.22003 14 3.97019 14 7.22003H16C16 2.73789 12.1283 -0.779968 7.5 -0.779968V1.22003ZM1 7.22003C1 3.97019 3.84405 1.22003 7.5 1.22003V-0.779968C2.87168 -0.779968 -1 2.73789 -1 7.22003H1ZM7.5 13.22C3.84405 13.22 1 10.4699 1 7.22003H-1C-1 11.7022 2.87168 15.22 7.5 15.22V13.22ZM6.26786 10.22C6.26786 10.4271 6.09996 10.595 5.89286 10.595V8.59503C4.99539 8.59503 4.26786 9.32257 4.26786 10.22H6.26786ZM5.89286 9.84503C6.09996 9.84503 6.26786 10.0129 6.26786 10.22H4.26786C4.26786 11.1175 4.99539 11.845 5.89286 11.845V9.84503ZM7.5 9.84503H5.89286V11.845H7.5V9.84503ZM9.10714 9.84503H7.5V11.845H9.10714V9.84503ZM8.73214 10.22C8.73214 10.0129 8.90003 9.84503 9.10714 9.84503V11.845C10.0046 11.845 10.7321 11.1175 10.7321 10.22H8.73214ZM9.10714 10.595C8.90003 10.595 8.73214 10.4271 8.73214 10.22H10.7321C10.7321 9.32257 10.0046 8.59503 9.10714 8.59503V10.595ZM8.125 10.595H9.10714V8.59503H8.125V10.595ZM7.125 6.72003V9.59503H9.125V6.72003H7.125ZM7.5 7.09503C7.29289 7.09503 7.125 6.92714 7.125 6.72003H9.125C9.125 5.82257 8.39746 5.09503 7.5 5.09503V7.09503ZM6.42857 7.09503H7.5V5.09503H6.42857V7.09503ZM6.80357 6.72003C6.80357 6.92714 6.63568 7.09503 6.42857 7.09503V5.09503C5.53111 5.09503 4.80357 5.82257 4.80357 6.72003H6.80357ZM6.42857 6.34503C6.63568 6.34503 6.80357 6.51293 6.80357 6.72003H4.80357C4.80357 7.61749 5.53111 8.34503 6.42857 8.34503V6.34503ZM6.875 6.34503H6.42857V8.34503H6.875V6.34503ZM7.875 9.59503V7.34503H5.875V9.59503H7.875ZM5.89286 10.595H6.875V8.59503H5.89286V10.595ZM7.5 6.22003C8.57792 6.22003 9.57143 5.38846 9.57143 4.22003H7.57143C7.57143 4.21156 7.5736 4.20268 7.57639 4.19651C7.57877 4.19127 7.57971 4.19196 7.5753 4.19608C7.56603 4.20473 7.54183 4.22003 7.5 4.22003V6.22003ZM5.42857 4.22003C5.42857 5.38846 6.42208 6.22003 7.5 6.22003V4.22003C7.45817 4.22003 7.43397 4.20473 7.4247 4.19608C7.42029 4.19196 7.42123 4.19127 7.4236 4.19651C7.4264 4.20268 7.42857 4.21156 7.42857 4.22003H5.42857ZM7.5 2.22003C6.42208 2.22003 5.42857 3.0516 5.42857 4.22003H7.42857C7.42857 4.22851 7.4264 4.23738 7.4236 4.24356C7.42123 4.24879 7.42029 4.2481 7.4247 4.24398C7.43397 4.23533 7.45817 4.22003 7.5 4.22003V2.22003ZM9.57143 4.22003C9.57143 3.0516 8.57792 2.22003 7.5 2.22003V4.22003C7.54183 4.22003 7.56603 4.23533 7.5753 4.24398C7.57971 4.2481 7.57877 4.24879 7.57639 4.24356C7.5736 4.23738 7.57143 4.22851 7.57143 4.22003H9.57143Z" fill="#202020" mask="url(#path-1-inside-1_32_139)"/>
</svg>
