<svg width="19" height="20" viewBox="0 0 19 20" fill="none" xmlns="http://www.w3.org/2000/svg">
<path d="M5.50276 1.45497L6.00026 1.40502V1.40502L5.50276 1.45497ZM5.90412 5.45227L5.40662 5.50222C5.43228 5.75774 5.64732 5.95227 5.90412 5.95227V5.45227ZM16.4044 5.45227V5.95227C16.4107 5.95227 16.417 5.95215 16.4233 5.95191L16.4044 5.45227ZM17.245 5.62989L17.4644 5.18061L17.4644 5.18061L17.245 5.62989ZM17.9075 6.19149L17.5003 6.48156L17.5023 6.48436L17.9075 6.19149ZM18.2208 6.95339L17.7267 7.03024V7.03025L18.2208 6.95339ZM18.153 7.77673L18.6276 7.93415L18.6279 7.9333L18.153 7.77673ZM18.1526 7.7779L18.6271 7.93566L18.6272 7.93533L18.1526 7.7779ZM16.4721 12.8321L16.9463 12.9907L16.9466 12.9898L16.4721 12.8321ZM16.4716 12.8336L16.9455 12.9929L16.9458 12.9923L16.4716 12.8336ZM15.7916 13.73L16.0728 14.1435L15.7916 13.73ZM14.7222 14.0335L14.7442 13.534C14.7369 13.5337 14.7295 13.5335 14.7222 13.5335V14.0335ZM6.77634 14.0335V13.5335L6.77157 13.5335L6.77634 14.0335ZM5.61736 13.6138L5.29354 13.9947L5.29354 13.9947L5.61736 13.6138ZM5.01591 12.5345L5.51026 12.4595L5.51025 12.4595L5.01591 12.5345ZM5.01277 12.5095L5.51026 12.4595L5.51026 12.4595L5.01277 12.5095ZM4.35828 6.00231L4.85577 5.95227V5.95227L4.35828 6.00231ZM4.42184 5.70387L4.85578 5.95226C4.90752 5.86186 4.92975 5.75756 4.91934 5.65391L4.42184 5.70387ZM4.07804 2.2799L4.57554 2.22995C4.54989 1.97443 4.33484 1.7799 4.07804 1.7799V2.2799ZM6.00026 1.40502C5.93611 0.766233 5.3985 0.2799 4.75651 0.2799V1.2799C4.88491 1.2799 4.99243 1.37717 5.00526 1.50492L6.00026 1.40502ZM6.40162 5.40232L6.00026 1.40502L5.00526 1.50492L5.40662 5.50222L6.40162 5.40232ZM16.4044 4.95227H5.90412V5.95227H16.4044V4.95227ZM17.4644 5.18061C17.129 5.0168 16.7583 4.93852 16.3855 4.95263L16.4233 5.95191C16.6314 5.94404 16.8383 5.98773 17.0256 6.07917L17.4644 5.18061ZM18.3148 5.90143C18.0959 5.59403 17.8035 5.34624 17.4644 5.18061L17.0255 6.07917C17.2149 6.17163 17.378 6.30995 17.5003 6.48155L18.3148 5.90143ZM18.7148 6.87654C18.6599 6.52338 18.5221 6.18827 18.3128 5.89863L17.5023 6.48436C17.6191 6.64605 17.696 6.83311 17.7267 7.03024L18.7148 6.87654ZM18.6279 7.9333C18.7401 7.5929 18.7699 7.23071 18.7148 6.87653L17.7267 7.03025C17.7575 7.22795 17.7408 7.43013 17.6782 7.62015L18.6279 7.9333ZM18.6272 7.93533L18.6276 7.93415L17.6784 7.6193L17.678 7.62048L18.6272 7.93533ZM16.9466 12.9898L18.6271 7.93566L17.6782 7.62015L15.9976 12.6743L16.9466 12.9898ZM16.9458 12.9923L16.9463 12.9907L15.9979 12.6734L15.9974 12.675L16.9458 12.9923ZM16.0728 14.1435C16.4815 13.8655 16.788 13.4615 16.9455 12.9929L15.9976 12.6743C15.9097 12.9358 15.7386 13.1614 15.5105 13.3165L16.0728 14.1435ZM14.7001 14.533C15.1875 14.5546 15.6691 14.418 16.0728 14.1435L15.5105 13.3165C15.2851 13.4698 15.0163 13.546 14.7442 13.534L14.7001 14.533ZM6.77634 14.5335H14.7222V13.5335H6.77634V14.5335ZM5.29354 13.9947C5.70848 14.3474 6.23664 14.5387 6.78111 14.5335L6.77157 13.5335C6.46764 13.5364 6.17281 13.4297 5.94119 13.2328L5.29354 13.9947ZM4.52156 12.6094C4.60342 13.1492 4.87758 13.6412 5.29354 13.9947L5.94119 13.2328C5.70899 13.0354 5.55595 12.7608 5.51026 12.4595L4.52156 12.6094ZM4.51528 12.5596C4.51695 12.5762 4.51905 12.5929 4.52157 12.6095L5.51025 12.4595L5.51026 12.4595L4.51528 12.5596ZM3.8608 6.05234L4.51528 12.5596L5.51026 12.4595L4.85577 5.95227L3.8608 6.05234ZM3.9879 5.45548C3.88527 5.63477 3.83976 5.84322 3.8608 6.05235L4.85577 5.95227L4.85578 5.95226L3.9879 5.45548ZM3.58055 2.32985L3.92434 5.75382L4.91934 5.65391L4.57554 2.22995L3.58055 2.32985ZM1.59766 2.7799H4.07804V1.7799H1.59766V2.7799ZM0.347656 1.5299C0.347656 2.22026 0.9073 2.7799 1.59766 2.7799V1.7799C1.45959 1.7799 1.34766 1.66797 1.34766 1.5299H0.347656ZM1.59766 0.2799C0.9073 0.2799 0.347656 0.839544 0.347656 1.5299H1.34766C1.34766 1.39183 1.45959 1.2799 1.59766 1.2799V0.2799ZM4.75651 0.2799H1.59766V1.2799H4.75651V0.2799ZM16.3795 17.8081C16.3795 16.7478 15.5199 15.8882 14.4595 15.8882V16.8882C14.9676 16.8882 15.3795 17.3 15.3795 17.8081H16.3795ZM14.4595 19.7281C15.5199 19.7281 16.3795 18.8685 16.3795 17.8081H15.3795C15.3795 18.3162 14.9676 18.7281 14.4595 18.7281V19.7281ZM12.5396 17.8081C12.5396 18.8685 13.3992 19.7281 14.4595 19.7281V18.7281C13.9514 18.7281 13.5396 18.3162 13.5396 17.8081H12.5396ZM14.4595 15.8882C13.3992 15.8882 12.5396 16.7478 12.5396 17.8081H13.5396C13.5396 17.3 13.9514 16.8882 14.4595 16.8882V15.8882ZM7.47567 16.8882C7.98374 16.8882 8.39562 17.3 8.39562 17.8081H9.39562C9.39562 16.7478 8.53603 15.8882 7.47567 15.8882V16.8882ZM6.55572 17.8081C6.55572 17.3 6.96759 16.8882 7.47567 16.8882V15.8882C6.41531 15.8882 5.55572 16.7478 5.55572 17.8081H6.55572ZM7.47567 18.7281C6.96759 18.7281 6.55572 18.3162 6.55572 17.8081H5.55572C5.55572 18.8685 6.41531 19.7281 7.47567 19.7281V18.7281ZM8.39562 17.8081C8.39562 18.3162 7.98374 18.7281 7.47567 18.7281V19.7281C8.53603 19.7281 9.39562 18.8685 9.39562 17.8081H8.39562ZM14.4087 9.90668C14.4087 9.16208 13.8051 8.55846 13.0605 8.55846V9.55846C13.2528 9.55846 13.4087 9.71437 13.4087 9.90668H14.4087ZM13.0605 11.2549C13.8051 11.2549 14.4087 10.6513 14.4087 9.90668H13.4087C13.4087 10.099 13.2528 10.2549 13.0605 10.2549V11.2549ZM9.49989 11.2549H13.0605V10.2549H9.49989V11.2549ZM8.15167 9.90668C8.15167 10.6513 8.75529 11.2549 9.49989 11.2549V10.2549C9.30758 10.2549 9.15167 10.099 9.15167 9.90668H8.15167ZM9.49989 8.55846C8.75529 8.55846 8.15167 9.16208 8.15167 9.90668H9.15167C9.15167 9.71437 9.30758 9.55846 9.49989 9.55846V8.55846ZM13.0605 8.55846H9.49989V9.55846H13.0605V8.55846Z" fill="#202020"/>
</svg>
