<svg width="25" height="25" viewBox="0 0 25 25" fill="none" xmlns="http://www.w3.org/2000/svg">
<path d="M10 5H15C15 4.33696 14.7366 3.70107 14.2678 3.23223C13.7989 2.76339 13.163 2.5 12.5 2.5C11.837 2.5 11.2011 2.76339 10.7322 3.23223C10.2634 3.70107 10 4.33696 10 5ZM7.5 5C7.5 3.67392 8.02678 2.40215 8.96447 1.46447C9.90215 0.526784 11.1739 0 12.5 0C13.8261 0 15.0979 0.526784 16.0355 1.46447C16.9732 2.40215 17.5 3.67392 17.5 5H23.75C24.0815 5 24.3995 5.1317 24.6339 5.36612C24.8683 5.60054 25 5.91848 25 6.25C25 6.58152 24.8683 6.89946 24.6339 7.13388C24.3995 7.3683 24.0815 7.5 23.75 7.5H22.6475L21.54 20.425C21.4335 21.6731 20.8625 22.8357 19.9398 23.6829C19.0172 24.5301 17.8101 25.0001 16.5575 25H8.4425C7.18989 25.0001 5.98284 24.5301 5.06019 23.6829C4.13753 22.8357 3.56647 21.6731 3.46 20.425L2.3525 7.5H1.25C0.918479 7.5 0.600537 7.3683 0.366116 7.13388C0.131696 6.89946 0 6.58152 0 6.25C0 5.91848 0.131696 5.60054 0.366116 5.36612C0.600537 5.1317 0.918479 5 1.25 5H7.5ZM16.25 12.5C16.25 12.1685 16.1183 11.8505 15.8839 11.6161C15.6495 11.3817 15.3315 11.25 15 11.25C14.6685 11.25 14.3505 11.3817 14.1161 11.6161C13.8817 11.8505 13.75 12.1685 13.75 12.5V17.5C13.75 17.8315 13.8817 18.1495 14.1161 18.3839C14.3505 18.6183 14.6685 18.75 15 18.75C15.3315 18.75 15.6495 18.6183 15.8839 18.3839C16.1183 18.1495 16.25 17.8315 16.25 17.5V12.5ZM10 11.25C9.66848 11.25 9.35054 11.3817 9.11612 11.6161C8.8817 11.8505 8.75 12.1685 8.75 12.5V17.5C8.75 17.8315 8.8817 18.1495 9.11612 18.3839C9.35054 18.6183 9.66848 18.75 10 18.75C10.3315 18.75 10.6495 18.6183 10.8839 18.3839C11.1183 18.1495 11.25 17.8315 11.25 17.5V12.5C11.25 12.1685 11.1183 11.8505 10.8839 11.6161C10.6495 11.3817 10.3315 11.25 10 11.25Z" fill="white"/>
</svg>
