<svg width="17" height="13" viewBox="0 0 17 13" fill="none" xmlns="http://www.w3.org/2000/svg">
<path d="M4.14218 2.59749L4.43446 3.00317L4.14218 2.59749ZM12.8578 2.59749L13.1501 2.19181V2.19181L12.8578 2.59749ZM15.6006 5.20845L15.9881 4.89248L15.9858 4.88971L15.6006 5.20845ZM15.6054 5.21438L15.9952 4.90116L15.9929 4.89841L15.6054 5.21438ZM15.6054 7.50003L15.9929 7.81601L15.9952 7.81325L15.6054 7.50003ZM15.6006 7.50596L15.9858 7.82471L15.9881 7.82193L15.6006 7.50596ZM12.8578 10.1169L13.1501 10.5226H13.1501L12.8578 10.1169ZM4.14218 10.1169L3.84991 10.5226H3.84991L4.14218 10.1169ZM1.39942 7.50596L1.01191 7.82196L1.01419 7.8247L1.39942 7.50596ZM1.39459 7.50003L1.00484 7.81326L1.00709 7.81602L1.39459 7.50003ZM1.39459 5.21438L1.00708 4.89838L1.00485 4.90116L1.39459 5.21438ZM1.39942 5.20845L1.01418 4.8897L1.01192 4.89247L1.39942 5.20845ZM8.5 0.5C6.69883 0.5 5.09704 1.2933 3.84991 2.19181L4.43446 3.00317C5.59417 2.16764 6.99173 1.5 8.5 1.5V0.5ZM13.1501 2.19181C11.903 1.2933 10.3012 0.5 8.5 0.5V1.5C10.0083 1.5 11.4058 2.16764 12.5655 3.00317L13.1501 2.19181ZM15.9858 4.88971C15.3927 4.17284 14.4057 3.09639 13.1501 2.19181L12.5655 3.00317C13.7255 3.8389 14.6508 4.84494 15.2154 5.5272L15.9858 4.88971ZM15.9929 4.89841L15.9881 4.89248L15.2131 5.52442L15.2179 5.53035L15.9929 4.89841ZM16.5 6.35721C16.5 5.83593 16.3288 5.31633 15.9952 4.90116L15.2157 5.52759C15.399 5.75571 15.5 6.05131 15.5 6.35721H16.5ZM15.9952 7.81325C16.3288 7.39808 16.5 6.87849 16.5 6.35721H15.5C15.5 6.6631 15.399 6.95871 15.2157 7.18682L15.9952 7.81325ZM15.9881 7.82193L15.9929 7.816L15.2179 7.18406L15.2131 7.18999L15.9881 7.82193ZM13.1501 10.5226C14.4057 9.61802 15.3927 8.54157 15.9858 7.8247L15.2154 7.18722C14.6508 7.86947 13.7255 8.87551 12.5655 9.71124L13.1501 10.5226ZM8.5 12.2144C10.3012 12.2144 11.903 11.4211 13.1501 10.5226L12.5655 9.71124C11.4058 10.5468 10.0083 11.2144 8.5 11.2144V12.2144ZM3.84991 10.5226C5.09704 11.4211 6.69883 12.2144 8.5 12.2144V11.2144C6.99173 11.2144 5.59417 10.5468 4.43446 9.71124L3.84991 10.5226ZM1.01419 7.8247C1.60733 8.54157 2.59435 9.61802 3.84991 10.5226L4.43446 9.71124C3.27445 8.87551 2.34916 7.86947 1.78465 7.18722L1.01419 7.8247ZM1.00709 7.81602L1.01192 7.82195L1.78691 7.18997L1.78208 7.18405L1.00709 7.81602ZM0.5 6.35721C0.5 6.87849 0.671194 7.39808 1.00485 7.81325L1.78432 7.18682C1.601 6.95871 1.5 6.6631 1.5 6.35721H0.5ZM1.00485 4.90116C0.671194 5.31633 0.5 5.83593 0.5 6.35721H1.5C1.5 6.05131 1.601 5.75571 1.78432 5.52759L1.00485 4.90116ZM1.01192 4.89247L1.00709 4.89839L1.78208 5.53037L1.78691 5.52444L1.01192 4.89247ZM3.84991 2.19181C2.59435 3.09639 1.60733 4.17284 1.01419 4.88971L1.78465 5.5272C2.34916 4.84494 3.27445 3.8389 4.43446 3.00317L3.84991 2.19181ZM10.4107 6.35714C10.4107 7.4124 9.55526 8.26786 8.5 8.26786V9.26786C10.1075 9.26786 11.4107 7.96469 11.4107 6.35714H10.4107ZM8.5 4.44643C9.55526 4.44643 10.4107 5.30188 10.4107 6.35714H11.4107C11.4107 4.7496 10.1075 3.44643 8.5 3.44643V4.44643ZM6.58929 6.35714C6.58929 5.30188 7.44474 4.44643 8.5 4.44643V3.44643C6.89246 3.44643 5.58929 4.7496 5.58929 6.35714H6.58929ZM8.5 8.26786C7.44474 8.26786 6.58929 7.4124 6.58929 6.35714H5.58929C5.58929 7.96469 6.89246 9.26786 8.5 9.26786V8.26786Z" fill="#202020"/>
</svg>
