<svg width="17" height="17" viewBox="0 0 17 17" fill="none" xmlns="http://www.w3.org/2000/svg">
<path d="M2.56734 1.90265L2.9209 2.25621V2.25621L2.56734 1.90265ZM15.504 1.90265L15.8575 1.5491V1.5491L15.504 1.90265ZM5.88292 15.2995V14.7995C5.84204 14.7995 5.80131 14.8045 5.76165 14.8145L5.88292 15.2995ZM1.65692 16.356L1.53565 15.871H1.53565L1.65692 16.356ZM1.16879 16.2107L0.801932 16.5504L0.801933 16.5504L1.16879 16.2107ZM1.06131 15.7128L1.53565 15.871L1.53565 15.871L1.06131 15.7128ZM2.10708 12.5755L2.58143 12.7337C2.59842 12.6827 2.60708 12.6293 2.60708 12.5755H2.10708ZM9.10877 8.94653V9.44653V8.94653ZM3.67851 0.942391C3.12914 0.942391 2.60226 1.16063 2.21379 1.5491L2.9209 2.25621C3.12183 2.05527 3.39435 1.94239 3.67851 1.94239V0.942391ZM14.3928 0.942391H3.67851V1.94239H14.3928V0.942391ZM15.8575 1.5491C15.469 1.16063 14.9422 0.942391 14.3928 0.942391V1.94239C14.677 1.94239 14.9495 2.05527 15.1504 2.25621L15.8575 1.5491ZM16.4642 3.01382C16.4642 2.46444 16.246 1.93757 15.8575 1.5491L15.1504 2.25621C15.3513 2.45714 15.4642 2.72966 15.4642 3.01382H16.4642ZM16.4642 13.7281V3.01382H15.4642V13.7281H16.4642ZM15.8575 15.1928C16.246 14.8044 16.4642 14.2775 16.4642 13.7281H15.4642C15.4642 14.0123 15.3513 14.2848 15.1504 14.4857L15.8575 15.1928ZM14.3928 15.7995C14.9422 15.7995 15.4691 15.5813 15.8575 15.1928L15.1504 14.4857C14.9495 14.6867 14.677 14.7995 14.3928 14.7995V15.7995ZM5.88292 15.7995H14.3928V14.7995H5.88292V15.7995ZM1.77819 16.8411L6.00419 15.7846L5.76165 14.8145L1.53565 15.871L1.77819 16.8411ZM0.801933 16.5504C1.04992 16.8182 1.42411 16.9296 1.77819 16.8411L1.53565 15.871H1.53565L0.801933 16.5504ZM0.586972 15.5547C0.471554 15.901 0.553946 16.2826 0.801932 16.5504L1.53566 15.871H1.53565L0.586972 15.5547ZM1.63274 12.4174L0.586972 15.5547L1.53565 15.871L2.58143 12.7337L1.63274 12.4174ZM1.60708 3.01382V12.5755H2.60708V3.01382H1.60708ZM2.21379 1.5491C1.82532 1.93757 1.60708 2.46444 1.60708 3.01382H2.60708C2.60708 2.72966 2.71997 2.45714 2.9209 2.25621L2.21379 1.5491ZM9.10877 4.27656C9.1778 4.27656 9.23377 4.33253 9.23377 4.40156H10.2338C10.2338 3.78024 9.73009 3.27656 9.10877 3.27656V4.27656ZM8.98377 4.40156C8.98377 4.33253 9.03973 4.27656 9.10877 4.27656V3.27656C8.48745 3.27656 7.98377 3.78024 7.98377 4.40156H8.98377ZM8.98377 8.32153V4.40156H7.98377V8.32153H8.98377ZM9.10877 8.44653C9.03973 8.44653 8.98377 8.39057 8.98377 8.32153H7.98377C7.98377 8.94285 8.48745 9.44653 9.10877 9.44653V8.44653ZM9.23377 8.32153C9.23377 8.39057 9.1778 8.44653 9.10877 8.44653L9.10877 9.44653C9.73009 9.44653 10.2338 8.94285 10.2338 8.32153H9.23377ZM9.23377 4.40156V8.32153H10.2338V4.40156H9.23377ZM9.10878 10.1479C8.26692 10.1479 7.58447 10.8303 7.58447 11.6722H8.58447C8.58447 11.3826 8.81921 11.1479 9.10878 11.1479V10.1479ZM10.6331 11.6722C10.6331 10.8303 9.95063 10.1479 9.10878 10.1479V11.1479C9.39835 11.1479 9.63309 11.3826 9.63309 11.6722H10.6331ZM9.10878 13.1965C9.95063 13.1965 10.6331 12.5141 10.6331 11.6722H9.63309C9.63309 11.9618 9.39835 12.1965 9.10878 12.1965V13.1965ZM7.58447 11.6722C7.58447 12.5141 8.26692 13.1965 9.10878 13.1965V12.1965C8.81921 12.1965 8.58447 11.9618 8.58447 11.6722H7.58447Z" fill="#202020"/>
</svg>
