<svg width="16" height="16" viewBox="0 0 16 16" fill="none" xmlns="http://www.w3.org/2000/svg">
<path d="M8.58873 14.6942L8.7704 15.1601H8.77041L8.58873 14.6942ZM7.99302 14.8136L7.99534 14.3136H7.99534L7.99302 14.8136ZM7.41127 14.6942L7.2296 15.1601H7.2296L7.41127 14.6942ZM11.4983 4.26281L11.1662 4.63651V4.63651L11.4983 4.26281ZM11.5606 5.32164L11.1869 4.98946L11.5606 5.32164ZM10.4395 4.32509L10.8132 4.65727L10.4395 4.32509ZM6.89798 8.3093L6.59798 8.7093C6.80602 8.86533 7.09892 8.83585 7.27169 8.64149L6.89798 8.3093ZM5.45006 7.22336L5.75006 6.82336L5.45006 7.22336ZM4.40006 7.37336L4.80006 7.67336L4.80006 7.67336L4.40006 7.37336ZM4.55006 8.42336L4.85006 8.02336L4.55006 8.42336ZM6.55006 9.92336L6.25006 10.3234L6.25006 10.3234L6.55006 9.92336ZM7.56062 9.82164L7.93432 10.1538H7.93432L7.56062 9.82164ZM2.5 0.31311C1.40355 0.31311 0.5 1.21543 0.5 2.31261H1.5C1.5 1.76824 1.95531 1.31311 2.5 1.31311V0.31311ZM13.5 0.31311H2.5V1.31311H13.5V0.31311ZM15.5 2.31261C15.5 1.21543 14.5965 0.31311 13.5 0.31311V1.31311C14.0447 1.31311 14.5 1.76824 14.5 2.31261H15.5ZM15.5 5.16669V2.31261H14.5V5.16669H15.5ZM8.77041 15.1601C12.8726 13.5602 15.5 9.49833 15.5 5.16669H14.5C14.5 9.10587 12.1075 12.7853 8.40706 14.2284L8.77041 15.1601ZM7.99069 15.3136C8.29404 15.315 8.56109 15.2417 8.7704 15.1601L8.40706 14.2284C8.27436 14.2802 8.13552 14.3143 7.99534 14.3136L7.99069 15.3136ZM7.2296 15.1601C7.43313 15.2394 7.69377 15.3122 7.99069 15.3136L7.99534 14.3136C7.85827 14.313 7.7227 14.279 7.59294 14.2284L7.2296 15.1601ZM0.5 5.16669C0.5 9.49833 3.12736 13.5602 7.2296 15.1601L7.59294 14.2284C3.89255 12.7853 1.5 9.10587 1.5 5.16669H0.5ZM0.5 2.31261V5.16669H1.5V2.31261H0.5ZM11.1662 4.63651C11.2693 4.72824 11.2786 4.88626 11.1869 4.98946L11.9343 5.65382C12.393 5.13784 12.3465 4.34775 11.8305 3.8891L11.1662 4.63651ZM10.8132 4.65727C10.9049 4.55408 11.063 4.54478 11.1662 4.63651L11.8305 3.8891C11.3145 3.43045 10.5244 3.47693 10.0658 3.99291L10.8132 4.65727ZM7.27169 8.64149L10.8132 4.65727L10.0658 3.99291L6.52428 7.97712L7.27169 8.64149ZM5.15006 7.62336L6.59798 8.7093L7.19798 7.9093L5.75006 6.82336L5.15006 7.62336ZM4.80006 7.67336C4.8829 7.56291 5.0396 7.54052 5.15006 7.62336L5.75006 6.82336C5.19778 6.40915 4.41427 6.52108 4.00006 7.07336L4.80006 7.67336ZM4.85006 8.02336C4.7396 7.94052 4.71722 7.78382 4.80006 7.67336L4.00006 7.07336C3.58585 7.62565 3.69778 8.40915 4.25006 8.82336L4.85006 8.02336ZM6.85006 9.52337L4.85006 8.02336L4.25006 8.82336L6.25006 10.3234L6.85006 9.52337ZM7.18691 9.48946C7.10053 9.58663 6.95408 9.60138 6.85006 9.52336L6.25006 10.3234C6.77015 10.7134 7.50241 10.6397 7.93432 10.1538L7.18691 9.48946ZM11.1869 4.98946L7.18691 9.48946L7.93432 10.1538L11.9343 5.65382L11.1869 4.98946Z" fill="#202020"/>
</svg>
