<svg width="17" height="18" viewBox="0 0 17 18" fill="none" xmlns="http://www.w3.org/2000/svg">
<path d="M15.611 9.2241C15.4723 9.06622 15.3958 8.86324 15.3958 8.65308C15.3958 8.44292 15.4723 8.23994 15.611 8.08205L16.7185 6.83618C16.8405 6.70006 16.9163 6.52878 16.9349 6.34692C16.9536 6.16506 16.9141 5.98197 16.8223 5.82391L15.0919 2.83035C15.001 2.67247 14.8625 2.54732 14.6963 2.47275C14.5301 2.39818 14.3445 2.37799 14.1661 2.41506L12.5396 2.74383C12.3326 2.78659 12.1172 2.75213 11.9339 2.64693C11.7506 2.54173 11.6121 2.37308 11.5446 2.1728L11.0169 0.589506C10.9588 0.417661 10.8482 0.268404 10.7007 0.16283C10.5532 0.0572573 10.3763 0.000708414 10.1949 0.00117662H6.73416C6.5455 -0.00867101 6.35879 0.0435072 6.20256 0.149742C6.04633 0.255977 5.92917 0.410428 5.86897 0.589506L5.38447 2.1728C5.31698 2.37308 5.17853 2.54173 4.99523 2.64693C4.81193 2.75213 4.59647 2.78659 4.3895 2.74383L2.71968 2.41506C2.55058 2.39116 2.37819 2.41785 2.22423 2.49175C2.07027 2.56565 1.94162 2.68346 1.85449 2.83035L0.124112 5.82391C0.0299451 5.9802 -0.0123955 6.16227 0.00314371 6.34408C0.0186829 6.52589 0.0913063 6.69813 0.210631 6.83618L1.30942 8.08205C1.44813 8.23994 1.52463 8.44292 1.52463 8.65308C1.52463 8.86324 1.44813 9.06622 1.30942 9.2241L0.210631 10.47C0.0913063 10.608 0.0186829 10.7803 0.00314371 10.9621C-0.0123955 11.1439 0.0299451 11.326 0.124112 11.4823L1.85449 14.4758C1.94542 14.6337 2.08387 14.7588 2.2501 14.8334C2.41633 14.908 2.60186 14.9282 2.78025 14.8911L4.4068 14.5623C4.61377 14.5196 4.82924 14.554 5.01253 14.6592C5.19583 14.7644 5.33429 14.9331 5.40177 15.1334L5.92954 16.7167C5.98974 16.8957 6.1069 17.0502 6.26313 17.1564C6.41935 17.2626 6.60606 17.3148 6.79473 17.305H10.2555C10.4369 17.3054 10.6138 17.2489 10.7613 17.1433C10.9088 17.0378 11.0194 16.8885 11.0774 16.7167L11.6052 15.1334C11.6727 14.9331 11.8111 14.7644 11.9944 14.6592C12.1777 14.554 12.3932 14.5196 12.6002 14.5623L14.2267 14.8911C14.4051 14.9282 14.5906 14.908 14.7569 14.8334C14.9231 14.7588 15.0615 14.6337 15.1525 14.4758L16.8828 11.4823C16.9747 11.3242 17.0141 11.1411 16.9955 10.9592C16.9768 10.7774 16.9011 10.6061 16.779 10.47L15.611 9.2241ZM14.3219 10.3835L15.014 11.1621L13.9066 13.0829L12.8857 12.8752C12.2625 12.7478 11.6143 12.8537 11.0641 13.1727C10.5139 13.4916 10.0999 14.0015 9.90076 14.6056L9.57199 15.5746H7.3571L7.04563 14.5883C6.84651 13.9842 6.43254 13.4743 5.8823 13.1554C5.33206 12.8364 4.68386 12.7305 4.06073 12.8579L3.0398 13.0655L1.91506 11.1535L2.60721 10.3748C3.03284 9.89893 3.26815 9.28288 3.26815 8.64443C3.26815 8.00597 3.03284 7.38992 2.60721 6.91405L1.91506 6.13538L3.0225 4.23196L4.04342 4.4396C4.66655 4.56698 5.31476 4.46113 5.865 4.14215C6.41524 3.82317 6.82921 3.31326 7.02833 2.70922L7.3571 1.73156H9.57199L9.90076 2.71787C10.0999 3.32191 10.5139 3.83182 11.0641 4.1508C11.6143 4.46978 12.2625 4.57563 12.8857 4.44825L13.9066 4.24061L15.014 6.16133L14.3219 6.94C13.901 7.41478 13.6686 8.02727 13.6686 8.66173C13.6686 9.29619 13.901 9.90868 14.3219 10.3835ZM8.46455 5.19232C7.78007 5.19232 7.11097 5.39529 6.54185 5.77556C5.97273 6.15583 5.52916 6.69633 5.26722 7.3287C5.00528 7.96107 4.93675 8.65692 5.07028 9.32824C5.20382 9.99956 5.53342 10.6162 6.01742 11.1002C6.50141 11.5842 7.11806 11.9138 7.78938 12.0473C8.46071 12.1809 9.15655 12.1123 9.78892 11.8504C10.4213 11.5885 10.9618 11.1449 11.3421 10.5758C11.7223 10.0067 11.9253 9.33755 11.9253 8.65308C11.9253 7.73523 11.5607 6.85497 10.9117 6.20595C10.2627 5.55693 9.3824 5.19232 8.46455 5.19232ZM8.46455 10.3835C8.12231 10.3835 7.78776 10.282 7.5032 10.0918C7.21864 9.9017 6.99685 9.63145 6.86588 9.31527C6.73491 8.99908 6.70065 8.65116 6.76741 8.3155C6.83418 7.97984 6.99898 7.67151 7.24098 7.42951C7.48298 7.18752 7.7913 7.02271 8.12696 6.95595C8.46263 6.88918 8.81055 6.92345 9.12673 7.05442C9.44292 7.18538 9.71317 7.40717 9.9033 7.69173C10.0934 7.97629 10.1949 8.31084 10.1949 8.65308C10.1949 9.112 10.0126 9.55213 9.68811 9.87664C9.3636 10.2012 8.92347 10.3835 8.46455 10.3835Z" fill="black"/>
</svg>
